<?xml version="1.0" standalone="no"?>
<!DOCTYPE svg PUBLIC "-//W3C//DTD SVG 20010904//EN"
 "http://www.w3.org/TR/2001/REC-SVG-20010904/DTD/svg10.dtd">
<svg version="1.0" xmlns="http://www.w3.org/2000/svg"
 width="150px" height="150px" viewBox="0 0 500.000000 500.000000"
 preserveAspectRatio="xMidYMid meet">
 
<defs>
    <linearGradient id="grad1" x1="0%" y1="0%" x2="100%" y2="0%">
      <stop offset="0%" style="stop-color:#333399;stop-opacity:1" />
      <stop offset="100%" style="stop-color:#ff00cc;stop-opacity:1" />
    </linearGradient>
  </defs>
  
<g transform="translate(0.000000,500.000000) scale(0.100000,-0.100000)"
fill="url(#grad1)" stroke="none">
<path d="M2190 4648 c-210 -74 -352 -250 -390 -482 -5 -32 -14 -202 -20 -379
-17 -523 -37 -781 -81 -1042 -25 -149 -67 -337 -77 -347 -4 -4 -25 15 -47 43
-103 135 -261 272 -385 333 -96 48 -153 61 -260 60 -107 -1 -185 -25 -286 -85
-76 -46 -208 -171 -242 -227 -34 -59 -36 -135 -4 -205 51 -114 241 -265 514
-407 97 -50 148 -83 171 -111 19 -21 85 -132 147 -247 62 -114 136 -243 165
-288 l53 -81 -29 -43 c-76 -113 -64 -245 38 -393 59 -87 138 -151 272 -220
293 -151 622 -225 812 -183 204 45 311 142 312 284 l1 63 60 28 c256 117 502
343 668 614 114 187 183 358 242 601 69 280 150 448 580 1195 193 337 205 372
171 489 -32 106 -111 162 -237 170 -139 8 -286 -57 -378 -169 -137 -167 -415
-466 -425 -457 -16 15 132 450 273 803 90 225 100 304 52 412 -77 176 -332
239 -568 141 -145 -60 -243 -155 -313 -303 -68 -143 -226 -498 -265 -592 -20
-51 -41 -93 -44 -93 -14 0 -23 213 -25 560 -1 334 -3 358 -22 401 -51 113
-143 171 -282 176 -70 3 -98 -1 -151 -19z m205 -99 c56 -16 92 -44 117 -92 21
-40 22 -52 19 -302 -2 -244 17 -782 39 -1100 9 -130 38 -287 73 -395 14 -43
15 -33 16 170 2 340 6 365 94 586 42 104 110 266 152 359 43 94 104 230 136
303 70 159 110 218 195 278 95 68 159 88 279 89 85 0 107 -3 148 -24 26 -12
60 -39 75 -59 25 -32 27 -43 26 -121 0 -82 -3 -93 -66 -246 -137 -333 -277
-754 -326 -985 -33 -152 -45 -292 -39 -446 2 -78 9 -149 14 -158 7 -12 24 54
62 231 29 136 61 266 70 288 11 24 46 65 91 105 86 76 305 310 432 462 80 96
98 112 162 144 84 41 161 52 220 32 47 -16 74 -49 87 -108 9 -39 7 -50 -24
-114 -18 -39 -113 -208 -209 -376 -357 -621 -452 -820 -523 -1104 -69 -272
-148 -454 -288 -660 -77 -114 -265 -303 -372 -374 -122 -81 -290 -161 -366
-173 -176 -29 -546 55 -808 183 -93 46 -117 63 -202 147 -115 115 -186 220
-339 500 -174 320 -178 324 -368 421 -307 156 -482 304 -482 408 0 64 137 197
269 260 64 31 87 37 162 40 109 5 183 -17 290 -87 85 -56 236 -208 329 -331
35 -47 69 -88 74 -92 19 -13 52 -9 69 10 37 42 122 421 156 702 29 233 39 389
51 750 15 487 20 532 76 642 36 71 123 159 193 197 91 48 162 60 236 40z
m-813 -3535 c106 -111 248 -192 467 -268 208 -72 382 -106 546 -107 61 0 119
3 129 7 17 7 19 3 13 -37 -10 -76 -102 -135 -249 -159 -177 -28 -549 75 -773
214 -138 86 -229 214 -229 321 0 43 16 95 29 95 2 0 32 -30 67 -66z"/>
<path d="M2496 1775 c-8 -9 -29 -62 -46 -118 -57 -188 -123 -381 -167 -490
-23 -60 -43 -117 -43 -126 0 -48 78 -69 104 -28 45 68 246 662 246 724 0 44
-63 69 -94 38z"/>
<path d="M2032 1637 c-6 -7 -23 -82 -37 -167 -14 -85 -37 -201 -52 -258 -23
-96 -24 -104 -9 -127 20 -30 65 -34 88 -7 19 21 60 191 88 362 23 144 25 181
8 198 -16 16 -73 15 -86 -1z"/>
<path d="M2812 1494 c-12 -8 -43 -56 -67 -105 -55 -109 -105 -190 -179 -293
-59 -84 -67 -113 -38 -139 27 -25 60 -21 89 11 72 78 283 439 283 485 0 40
-54 65 -88 41z"/>
</g>
</svg>
