<?xml version="1.0" standalone="no"?>
<!DOCTYPE svg PUBLIC "-//W3C//DTD SVG 20010904//EN"
 "http://www.w3.org/TR/2001/REC-SVG-20010904/DTD/svg10.dtd">
<svg version="1.0" xmlns="http://www.w3.org/2000/svg"
 width="150px" height="150px" viewBox="0 0 900.000000 699.000000"
 preserveAspectRatio="xMidYMid meet">
<defs>
    <linearGradient id="grad1" x1="0%" y1="0%" x2="100%" y2="0%">
      <stop offset="0%" style="stop-color:#333399;stop-opacity:1" />
      <stop offset="100%" style="stop-color:#ff00cc;stop-opacity:1" />
    </linearGradient>
  </defs>
<g transform="translate(0.000000,699.000000) scale(0.100000,-0.100000)"
fill="url(#grad1)" stroke="none">
<path d="M4810 6810 c-783 -75 -1637 -424 -2258 -924 l-135 -109 -26 17 c-51
33 -152 76 -214 91 -91 21 -247 19 -343 -5 -106 -26 -260 -104 -364 -183 -113
-85 -262 -242 -332 -347 -231 -348 -449 -1027 -512 -1590 -42 -385 -25 -637
60 -883 96 -274 221 -464 376 -567 141 -94 289 -116 493 -75 30 6 32 4 109
-125 386 -646 933 -1135 1661 -1486 590 -284 1150 -424 1898 -475 254 -17 705
-7 907 21 489 66 841 211 1074 443 46 45 102 111 126 146 85 126 151 298 166
431 3 31 9 62 13 68 3 5 41 19 85 31 415 114 711 452 807 924 49 243 32 519
-47 740 -70 193 -180 350 -312 447 l-61 44 73 76 c222 232 336 501 336 790 0
286 -101 529 -309 743 -204 210 -468 327 -791 352 -76 6 -290 -7 -346 -21 -20
-5 -24 2 -49 78 -76 232 -175 445 -277 598 -264 394 -663 641 -1183 731 -138
24 -468 34 -625 19z m510 -291 c174 -20 383 -81 535 -157 283 -140 485 -348
630 -647 55 -111 113 -256 140 -344 l7 -24 -143 7 c-449 22 -790 118 -1143
320 -65 36 -199 119 -299 184 -274 177 -273 177 -192 102 39 -36 158 -151 265
-256 107 -105 230 -218 272 -251 311 -246 674 -354 1273 -379 147 -6 169 -5
265 17 136 31 403 34 514 6 174 -44 335 -135 448 -255 79 -84 130 -166 168
-272 101 -276 38 -566 -177 -815 -134 -155 -240 -202 -606 -269 -332 -61 -439
-77 -832 -121 -326 -37 -318 -31 -100 -76 105 -22 246 -46 315 -54 227 -27
633 -16 908 24 52 8 78 6 140 -10 93 -23 147 -55 216 -123 142 -143 217 -361
216 -636 0 -513 -304 -901 -745 -950 -44 -5 -195 -14 -335 -19 -271 -11 -1045
-57 -1145 -69 l-60 -7 115 -37 c282 -92 582 -135 1003 -145 l247 -6 -6 -36
c-69 -414 -440 -673 -1098 -766 -467 -67 -1196 -26 -1736 97 -502 113 -1034
343 -1455 629 -453 306 -813 702 -1082 1189 -101 181 -129 262 -154 440 -15
110 -15 441 0 595 60 601 245 1266 445 1598 248 413 681 789 1241 1078 659
341 1378 502 1945 438z m-3162 -924 c23 -9 42 -20 42 -25 0 -4 -21 -31 -47
-61 -299 -342 -458 -677 -608 -1284 -152 -614 -195 -1211 -114 -1585 32 -145
35 -135 -41 -138 -177 -8 -307 127 -424 441 -63 169 -71 223 -71 482 1 235 10
330 56 580 81 438 255 929 417 1177 131 199 358 377 539 423 72 18 192 13 251
-10z"/>
<path d="M2336 4571 c-88 -59 -88 -198 1 -245 55 -28 491 -86 793 -106 490
-31 470 -31 517 -10 34 15 48 29 63 62 24 54 24 72 0 126 -28 61 -72 78 -225
86 -435 24 -632 42 -889 81 -192 30 -222 31 -260 6z"/>
<path d="M2265 3796 c-95 -42 -115 -169 -37 -239 33 -30 491 -163 832 -242
234 -54 938 -195 974 -195 38 0 89 30 112 66 25 37 24 116 -3 152 -11 15 -33
35 -49 44 -16 9 -157 42 -314 73 -640 127 -964 206 -1380 335 -76 23 -94 24
-135 6z"/>
<path d="M2201 3133 c-72 -38 -99 -118 -63 -189 17 -33 43 -53 163 -125 287
-172 492 -275 770 -384 79 -31 185 -72 236 -92 112 -44 148 -41 205 17 33 33
38 44 38 84 0 50 -16 90 -46 118 -11 9 -136 63 -279 119 -284 112 -515 225
-755 368 -171 103 -210 115 -269 84z"/>
</g>
</svg>
