<?xml version="1.0" standalone="no"?>
<!DOCTYPE svg PUBLIC "-//W3C//DTD SVG 20010904//EN"
 "http://www.w3.org/TR/2001/REC-SVG-20010904/DTD/svg10.dtd">
<svg version="1.0" xmlns="http://www.w3.org/2000/svg"
 width="150px" height="150px" viewBox="0 0 900.000000 1155.000000"
 preserveAspectRatio="xMidYMid meet">
<defs>
    <linearGradient id="grad1" x1="0%" y1="0%" x2="100%" y2="0%">
      <stop offset="0%" style="stop-color:#333399;stop-opacity:1" />
      <stop offset="100%" style="stop-color:#ff00cc;stop-opacity:1" />
    </linearGradient>
  </defs>
<g transform="translate(0.000000,1155.000000) scale(0.100000,-0.100000)"
fill="url(#grad1)" stroke="none">
<path d="M4970 11126 c-121 -45 -156 -62 -231 -107 -267 -162 -476 -388 -594
-643 -81 -176 -118 -325 -134 -546 -6 -74 -15 -187 -21 -250 -20 -216 -60
-645 -70 -745 -14 -140 -38 -456 -46 -605 -7 -135 -15 -166 -32 -134 -11 20
-190 459 -228 559 -225 591 -301 810 -398 1155 -47 169 -83 253 -149 353 -230
345 -668 423 -1072 190 -423 -244 -688 -756 -661 -1280 10 -190 44 -358 132
-643 66 -216 221 -668 277 -810 35 -88 146 -383 168 -445 9 -27 41 -111 69
-185 75 -196 260 -754 260 -784 0 -20 -12 -32 -67 -65 -99 -57 -276 -183 -370
-262 -288 -242 -485 -569 -564 -934 -57 -269 -47 -626 26 -918 72 -284 231
-674 370 -907 18 -30 54 -91 81 -135 266 -447 672 -901 1081 -1207 51 -38 93
-73 93 -76 0 -4 -10 -36 -22 -72 -25 -78 -30 -254 -9 -340 18 -75 73 -191 127
-272 93 -136 300 -306 489 -401 91 -45 276 -110 350 -122 22 -4 54 -11 70 -16
42 -12 266 -45 415 -61 188 -20 704 -16 905 6 305 34 630 118 785 203 247 137
464 332 542 488 51 101 70 175 70 265 -1 92 -27 212 -61 279 -12 22 -21 45
-21 52 0 6 60 70 133 143 373 371 674 839 858 1336 134 363 232 814 268 1230
13 149 14 549 1 720 -31 421 -117 755 -276 1075 -141 283 -312 521 -553 769
-214 219 -547 482 -769 607 -23 13 -44 31 -47 39 -7 24 -23 281 -36 565 -19
428 -4 1417 27 1885 13 191 9 407 -9 486 -56 248 -190 440 -374 537 l-71 37
-338 0 c-255 -1 -348 -4 -374 -14z m533 -231 c166 -43 262 -136 324 -312 27
-76 28 -82 27 -293 0 -118 -6 -298 -12 -400 -50 -798 -32 -1918 39 -2490 55
-446 205 -956 383 -1300 49 -95 72 -115 62 -54 -3 22 -24 197 -46 389 -22 193
-53 453 -68 578 -16 126 -25 230 -22 232 4 3 40 -18 80 -45 226 -157 519 -427
680 -630 302 -380 475 -779 534 -1234 110 -846 -53 -1782 -434 -2496 -78 -145
-222 -363 -336 -505 -107 -134 -424 -453 -516 -518 -201 -143 -542 -240 -1038
-294 -233 -25 -802 -25 -1010 1 -318 38 -502 90 -746 211 -289 142 -540 330
-824 614 -339 340 -589 686 -795 1103 -228 460 -322 853 -295 1219 34 443 212
771 568 1048 74 57 245 171 258 171 15 0 18 -8 44 -145 67 -356 66 -679 -6
-1005 -14 -63 -70 -248 -125 -411 -54 -162 -99 -302 -99 -310 0 -7 26 31 58
86 32 55 93 156 136 225 175 279 272 504 313 720 22 118 25 503 4 650 -58 420
-171 795 -526 1740 -256 684 -393 1094 -466 1395 -30 124 -38 383 -16 510 63
356 281 660 570 796 100 46 178 62 287 57 84 -3 105 -8 161 -35 99 -49 183
-141 235 -259 13 -30 49 -141 78 -247 118 -415 256 -792 614 -1672 206 -508
227 -561 290 -740 143 -404 290 -698 513 -1030 125 -185 158 -227 159 -204 0
9 -47 148 -104 310 -107 304 -150 438 -210 644 -95 330 -110 424 -101 625 31
671 49 931 115 1610 17 168 37 397 45 510 17 223 34 327 72 435 132 368 468
671 833 749 88 19 242 20 313 1z m-2250 -9406 c300 -151 552 -220 924 -253
264 -23 449 -28 703 -16 572 25 1041 121 1329 271 86 44 93 42 111 -33 16 -66
7 -139 -27 -207 -55 -114 -290 -311 -464 -390 -221 -99 -535 -158 -914 -170
-612 -19 -1111 58 -1374 214 -215 127 -350 272 -396 427 -21 73 -20 208 2 208
2 0 49 -23 106 -51z"/>
<path d="M4926 3990 c-40 -12 -84 -57 -95 -97 -6 -20 -6 -123 0 -260 19 -477
22 -941 9 -1257 -12 -288 -11 -314 4 -344 34 -66 132 -93 196 -55 57 33 67 70
81 283 17 264 17 817 0 1260 -13 338 -15 368 -35 403 -31 57 -99 85 -160 67z"/>
<path d="M5835 3571 c-74 -33 -69 -17 -140 -486 -37 -249 -81 -434 -176 -736
-44 -141 -46 -166 -23 -216 41 -86 168 -101 231 -28 36 41 153 430 209 689 42
200 104 652 93 690 -15 53 -84 106 -137 106 -9 0 -35 -9 -57 -19z"/>
<path d="M3960 3302 c-43 -21 -80 -75 -80 -116 0 -17 18 -129 40 -248 55 -306
87 -529 109 -775 21 -239 28 -258 101 -287 51 -20 65 -20 116 3 31 14 47 30
63 64 21 43 21 50 11 174 -25 309 -47 466 -116 853 -48 269 -54 287 -114 328
-40 26 -83 28 -130 4z"/>
</g>
</svg>
